# xmcd
#
# Track frame offsets:
#	180
#	16506
#	32069
#	54137
#	70328
#
# Disc length: 1243
#
# Revision: 2
# Processed by: cddbd v1.5.1PL0 Copyright (c) Steve Scherf et al.
# Submitted via: audiograbber 1.70
# Normalized: r1:TRMNUM
#
DISCID=3004d905
DTITLE=The Blindboy - In Search of Mr. Green (Maxi)
DYEAR=1900
DGENRE=
TTITLE0=Your Country
TTITLE1=Who Killed Image Grey
TTITLE2=Mr. Green
TTITLE3=Has Anyone Been Talking To Rose Lateley?
TTITLE4=Soul Parasite
EXTD=
EXTT0=
EXTT1=
EXTT2=
EXTT3=
EXTT4=
PLAYORDER=
